<svg xmlns="http://www.w3.org/2000/svg" width="30" height="37" fill="none" viewBox="0 0 30 37"><g filter="url(#filter0_di_45_21380)"><path fill="#8459D1" d="M23.1262 2.88773L5.13637 6.59332C4.84434 6.65348 4.69832 6.68355 4.5962 6.7641C4.51369 6.82917 4.45156 6.91654 4.41717 7.01583C4.37461 7.13874 4.39412 7.28654 4.43315 7.58213L7.67356 32.1227C7.71185 32.4127 7.73099 32.5577 7.80225 32.6642C7.85984 32.7504 7.94059 32.8184 8.0352 32.8607C8.15225 32.9129 8.29839 32.9073 8.59067 32.896L8.59069 32.896L26.9764 32.1884C27.3221 32.175 27.495 32.1684 27.6183 32.0921C27.7176 32.0306 27.7948 31.9391 27.8386 31.8308C27.893 31.6964 27.8703 31.5249 27.825 31.1819L24.1888 3.64339C24.1443 3.30677 24.1221 3.13846 24.0366 3.02375C23.9677 2.93129 23.8714 2.86284 23.7615 2.82809C23.6251 2.78498 23.4588 2.81923 23.1262 2.88773Z"/><path fill="url(#paint0_linear_45_21380)" d="M23.9292 2.90845C23.9292 2.90845 24.0421 2.98982 24.0898 3.09846C24.1289 3.18744 24.1315 3.21552 24.1323 3.21474L27.8793 31.5922C27.8793 31.5922 27.8801 31.6763 27.8703 31.7289C27.8516 31.829 27.7663 31.9681 27.7663 31.9681L23.9292 2.90845Z"/><path fill="url(#paint1_linear_45_21380)" d="M23.9292 2.90845C23.9292 2.90845 24.0421 2.98982 24.0898 3.09846C24.1289 3.18744 24.1315 3.21552 24.1323 3.21474L27.8793 31.5922C27.8793 31.5922 27.8801 31.6763 27.8703 31.7289C27.8516 31.829 27.7663 31.9681 27.7663 31.9681L23.9292 2.90845Z"/><g filter="url(#filter1_d_45_21380)"><path fill="#fff" d="M23.6592 3.37879L4.71547 7.28086L8.03141 32.3935L27.392 31.6483L23.6592 3.37879Z"/><path stroke="#CBCBCB" stroke-width=".056" d="M23.6592 3.37879L4.71547 7.28086L8.03141 32.3935L27.392 31.6483L23.6592 3.37879Z"/></g><g filter="url(#filter2_d_45_21380)"><path fill="#fff" d="M23.5467 3.32248L4.63851 7.22504L7.96673 32.4307L27.2933 31.6967L23.5467 3.32248Z"/><path stroke="#CBCBCB" stroke-width=".056" d="M23.5467 3.32248L4.63851 7.22504L7.96673 32.4307L27.2933 31.6967L23.5467 3.32248Z"/></g><g filter="url(#filter3_d_45_21380)"><path fill="#fff" d="M23.4358 3.30137L4.52834 7.20902L7.86884 32.5076L27.1963 31.7802L23.4358 3.30137Z"/><path stroke="#CBCBCB" stroke-width=".056" d="M23.4358 3.30137L4.52834 7.20902L7.86884 32.5076L27.1963 31.7802L23.4358 3.30137Z"/></g><g filter="url(#filter4_d_45_21380)"><path fill="#fff" d="M23.3221 3.24534L4.41525 7.15809L7.76803 32.5497L27.0963 31.8289L23.3221 3.24534Z"/><path stroke="#CBCBCB" stroke-width=".056" d="M23.3221 3.24534L4.41525 7.15809L7.76803 32.5497L27.0963 31.8289L23.3221 3.24534Z"/></g><g filter="url(#filter5_d_45_21380)"><path fill="#fff" d="M23.2132 3.22422L4.30703 7.14207L7.67209 32.6267L27.0013 31.9125L23.2132 3.22422Z"/><path stroke="#CBCBCB" stroke-width=".056" d="M23.2132 3.22422L4.30703 7.14207L7.67209 32.6267L27.0013 31.9125L23.2132 3.22422Z"/></g><g filter="url(#filter6_d_45_21380)"><path fill="#fff" d="M23.0992 3.16822L4.29888 7.08075L7.68441 32.7204L26.9103 32.031L23.0992 3.16822Z"/><path stroke="#CBCBCB" stroke-width=".056" d="M23.0992 3.16822L4.29888 7.08075L7.68441 32.7204L26.9103 32.031L23.0992 3.16822Z"/></g><g filter="url(#filter7_d_45_21380)"><path fill="#fff" d="M22.9903 3.1471L4.19089 7.06643L7.59279 32.8301L26.8199 32.1495L22.9903 3.1471Z"/><path stroke="#CBCBCB" stroke-width=".056" d="M22.9903 3.1471L4.19089 7.06643L7.59279 32.8301L26.8199 32.1495L22.9903 3.1471Z"/></g><g filter="url(#filter8_d_45_21380)"><path fill="#fff" d="M22.8717 3.05604L4.07358 6.98556L7.50005 32.9352L26.7289 32.2678L22.8717 3.05604Z"/><path stroke="#CBCBCB" stroke-width=".056" d="M22.8717 3.05604L4.07358 6.98556L7.50005 32.9352L26.7289 32.2678L22.8717 3.05604Z"/></g><g filter="url(#filter9_d_45_21380)"><path fill="#fff" d="M22.7579 3.00086L3.96094 6.93888L7.40787 33.0436L26.6381 32.3872L22.7579 3.00086Z"/><path stroke="#CBCBCB" stroke-width=".056" d="M22.7579 3.00086L3.96094 6.93888L7.40787 33.0436L26.6381 32.3872L22.7579 3.00086Z"/></g><g filter="url(#filter10_d_45_21380)"><path fill="#fff" d="M22.6392 2.9098L3.84408 6.86142L7.32376 33.2141L26.5563 32.5753L22.6392 2.9098Z"/><path stroke="#CBCBCB" stroke-width=".056" d="M22.6392 2.9098L3.84408 6.86142L7.32376 33.2141L26.5563 32.5753L22.6392 2.9098Z"/></g><g filter="url(#filter11_d_45_21380)"><path fill="#fff" d="M22.5206 2.81885L3.72677 6.78067L7.23102 33.3194L26.4653 32.6938L22.5206 2.81885Z"/><path stroke="#CBCBCB" stroke-width=".056" d="M22.5206 2.81885L3.72677 6.78067L7.23102 33.3194L26.4653 32.6938L22.5206 2.81885Z"/></g><g filter="url(#filter12_d_45_21380)"><path fill="#fff" d="M22.4019 2.72706L3.60969 6.70077L7.14259 33.4565L26.379 32.8463L22.4019 2.72706Z"/><path stroke="#CBCBCB" stroke-width=".056" d="M22.4019 2.72706L3.60969 6.70077L7.14259 33.4565L26.379 32.8463L22.4019 2.72706Z"/></g><g filter="url(#filter13_d_45_21380)"><path fill="#fff" d="M22.2833 2.63685L3.49239 6.62076L7.04985 33.5625L26.288 32.9655L22.2833 2.63685Z"/><path stroke="#CBCBCB" stroke-width=".056" d="M22.2833 2.63685L3.49239 6.62076L7.04985 33.5625L26.288 32.9655L22.2833 2.63685Z"/></g><path fill="#6927DA" d="M21.0657 2.18087L3.50023 5.90011L3.50023 5.90011C3.02773 6.00015 2.79148 6.05018 2.6671 6.2261C2.54272 6.40202 2.57433 6.64143 2.63756 7.12025L6.09522 33.3062C6.15714 33.7752 6.1881 34.0096 6.3496 34.1468C6.5111 34.2839 6.74749 34.2765 7.22026 34.2617L25.2023 33.6974C25.7701 33.6796 26.0539 33.6707 26.2119 33.4847C26.3699 33.2986 26.3327 33.0171 26.2584 32.454L22.3841 3.11301C22.3113 2.56135 22.2749 2.28552 22.0786 2.14675C21.8823 2.00797 21.6101 2.0656 21.0657 2.18087Z"/><path fill="url(#paint2_linear_45_21380)" d="M21.0657 2.18087L3.50023 5.90011L3.50023 5.90011C3.02773 6.00015 2.79148 6.05018 2.6671 6.2261C2.54272 6.40202 2.57433 6.64143 2.63756 7.12025L6.09522 33.3062C6.15714 33.7752 6.1881 34.0096 6.3496 34.1468C6.5111 34.2839 6.74749 34.2765 7.22026 34.2617L25.2023 33.6974C25.7701 33.6796 26.0539 33.6707 26.2119 33.4847C26.3699 33.2986 26.3327 33.0171 26.2584 32.454L22.3841 3.11301C22.3113 2.56135 22.2749 2.28552 22.0786 2.14675C21.8823 2.00797 21.6101 2.0656 21.0657 2.18087Z"/><path fill="url(#paint3_linear_45_21380)" d="M21.8687 2.05066C21.8687 2.05066 22.1034 2.11074 22.1982 2.22192C22.2758 2.31297 22.3168 2.50248 22.3188 2.50149L26.3563 33.0788C26.3563 33.0788 26.3403 33.3215 26.2888 33.413C26.2228 33.5302 26.0392 33.6357 26.0392 33.6357L21.8687 2.05066Z"/><path fill="url(#paint4_linear_45_21380)" d="M21.8687 2.05066C21.8687 2.05066 22.1034 2.11074 22.1982 2.22192C22.2758 2.31297 22.3168 2.50248 22.3188 2.50149L26.3563 33.0788C26.3563 33.0788 26.3403 33.3215 26.2888 33.413C26.2228 33.5302 26.0392 33.6357 26.0392 33.6357L21.8687 2.05066Z"/></g><defs><filter id="filter0_di_45_21380" width="29.823" height="38.581" x=".3" y="-.291" color-interpolation-filters="sRGB" filterUnits="userSpaceOnUse"><feFlood flood-opacity="0" result="BackgroundImageFix"/><feColorMatrix in="SourceAlpha" result="hardAlpha" type="matrix" values="0 0 0 0 0 0 0 0 0 0 0 0 0 0 0 0 0 0 127 0"/><feOffset/><feGaussianBlur stdDeviation="1"/><feComposite in2="hardAlpha" operator="out"/><feColorMatrix type="matrix" values="0 0 0 0 0 0 0 0 0 0 0 0 0 0 0 0 0 0 0.06 0"/><feBlend in2="BackgroundImageFix" mode="normal" result="effect1_dropShadow_45_21380"/><feBlend in="SourceGraphic" in2="effect1_dropShadow_45_21380" mode="normal" result="shape"/><feColorMatrix in="SourceAlpha" result="hardAlpha" type="matrix" values="0 0 0 0 0 0 0 0 0 0 0 0 0 0 0 0 0 0 127 0"/><feOffset/><feGaussianBlur stdDeviation="1"/><feComposite in2="hardAlpha" k2="-1" k3="1" operator="arithmetic"/><feColorMatrix type="matrix" values="0 0 0 0 0 0 0 0 0 0 0 0 0 0 0 0 0 0 0.05 0"/><feBlend in2="shape" mode="normal" result="effect2_innerShadow_45_21380"/></filter><filter id="filter1_d_45_21380" width="22.964" height="29.301" x="4.628" y="3.233" color-interpolation-filters="sRGB" filterUnits="userSpaceOnUse"><feFlood flood-opacity="0" result="BackgroundImageFix"/><feColorMatrix in="SourceAlpha" result="hardAlpha" type="matrix" values="0 0 0 0 0 0 0 0 0 0 0 0 0 0 0 0 0 0 127 0"/><feOffset dx=".056"/><feGaussianBlur stdDeviation=".056"/><feComposite in2="hardAlpha" operator="out"/><feColorMatrix type="matrix" values="0 0 0 0 0 0 0 0 0 0 0 0 0 0 0 0 0 0 0.1 0"/><feBlend in2="BackgroundImageFix" mode="normal" result="effect1_dropShadow_45_21380"/><feBlend in="SourceGraphic" in2="effect1_dropShadow_45_21380" mode="normal" result="shape"/></filter><filter id="filter2_d_45_21380" width="22.942" height="29.395" x="4.551" y="3.177" color-interpolation-filters="sRGB" filterUnits="userSpaceOnUse"><feFlood flood-opacity="0" result="BackgroundImageFix"/><feColorMatrix in="SourceAlpha" result="hardAlpha" type="matrix" values="0 0 0 0 0 0 0 0 0 0 0 0 0 0 0 0 0 0 127 0"/><feOffset dx=".056"/><feGaussianBlur stdDeviation=".056"/><feComposite in2="hardAlpha" operator="out"/><feColorMatrix type="matrix" values="0 0 0 0 0 0 0 0 0 0 0 0 0 0 0 0 0 0 0.1 0"/><feBlend in2="BackgroundImageFix" mode="normal" result="effect1_dropShadow_45_21380"/><feBlend in="SourceGraphic" in2="effect1_dropShadow_45_21380" mode="normal" result="shape"/></filter><filter id="filter3_d_45_21380" width="22.955" height="29.493" x="4.441" y="3.156" color-interpolation-filters="sRGB" filterUnits="userSpaceOnUse"><feFlood flood-opacity="0" result="BackgroundImageFix"/><feColorMatrix in="SourceAlpha" result="hardAlpha" type="matrix" values="0 0 0 0 0 0 0 0 0 0 0 0 0 0 0 0 0 0 127 0"/><feOffset dx=".056"/><feGaussianBlur stdDeviation=".056"/><feComposite in2="hardAlpha" operator="out"/><feColorMatrix type="matrix" values="0 0 0 0 0 0 0 0 0 0 0 0 0 0 0 0 0 0 0.1 0"/><feBlend in2="BackgroundImageFix" mode="normal" result="effect1_dropShadow_45_21380"/><feBlend in="SourceGraphic" in2="effect1_dropShadow_45_21380" mode="normal" result="shape"/></filter><filter id="filter4_d_45_21380" width="22.968" height="29.591" x="4.328" y="3.1" color-interpolation-filters="sRGB" filterUnits="userSpaceOnUse"><feFlood flood-opacity="0" result="BackgroundImageFix"/><feColorMatrix in="SourceAlpha" result="hardAlpha" type="matrix" values="0 0 0 0 0 0 0 0 0 0 0 0 0 0 0 0 0 0 127 0"/><feOffset dx=".056"/><feGaussianBlur stdDeviation=".056"/><feComposite in2="hardAlpha" operator="out"/><feColorMatrix type="matrix" values="0 0 0 0 0 0 0 0 0 0 0 0 0 0 0 0 0 0 0.1 0"/><feBlend in2="BackgroundImageFix" mode="normal" result="effect1_dropShadow_45_21380"/><feBlend in="SourceGraphic" in2="effect1_dropShadow_45_21380" mode="normal" result="shape"/></filter><filter id="filter5_d_45_21380" width="22.981" height="29.689" x="4.22" y="3.079" color-interpolation-filters="sRGB" filterUnits="userSpaceOnUse"><feFlood flood-opacity="0" result="BackgroundImageFix"/><feColorMatrix in="SourceAlpha" result="hardAlpha" type="matrix" values="0 0 0 0 0 0 0 0 0 0 0 0 0 0 0 0 0 0 127 0"/><feOffset dx=".056"/><feGaussianBlur stdDeviation=".056"/><feComposite in2="hardAlpha" operator="out"/><feColorMatrix type="matrix" values="0 0 0 0 0 0 0 0 0 0 0 0 0 0 0 0 0 0 0.1 0"/><feBlend in2="BackgroundImageFix" mode="normal" result="effect1_dropShadow_45_21380"/><feBlend in="SourceGraphic" in2="effect1_dropShadow_45_21380" mode="normal" result="shape"/></filter><filter id="filter6_d_45_21380" width="22.898" height="29.838" x="4.212" y="3.023" color-interpolation-filters="sRGB" filterUnits="userSpaceOnUse"><feFlood flood-opacity="0" result="BackgroundImageFix"/><feColorMatrix in="SourceAlpha" result="hardAlpha" type="matrix" values="0 0 0 0 0 0 0 0 0 0 0 0 0 0 0 0 0 0 127 0"/><feOffset dx=".056"/><feGaussianBlur stdDeviation=".056"/><feComposite in2="hardAlpha" operator="out"/><feColorMatrix type="matrix" values="0 0 0 0 0 0 0 0 0 0 0 0 0 0 0 0 0 0 0.1 0"/><feBlend in2="BackgroundImageFix" mode="normal" result="effect1_dropShadow_45_21380"/><feBlend in="SourceGraphic" in2="effect1_dropShadow_45_21380" mode="normal" result="shape"/></filter><filter id="filter7_d_45_21380" width="22.916" height="29.969" x="4.104" y="3.002" color-interpolation-filters="sRGB" filterUnits="userSpaceOnUse"><feFlood flood-opacity="0" result="BackgroundImageFix"/><feColorMatrix in="SourceAlpha" result="hardAlpha" type="matrix" values="0 0 0 0 0 0 0 0 0 0 0 0 0 0 0 0 0 0 127 0"/><feOffset dx=".056"/><feGaussianBlur stdDeviation=".056"/><feComposite in2="hardAlpha" operator="out"/><feColorMatrix type="matrix" values="0 0 0 0 0 0 0 0 0 0 0 0 0 0 0 0 0 0 0.1 0"/><feBlend in2="BackgroundImageFix" mode="normal" result="effect1_dropShadow_45_21380"/><feBlend in="SourceGraphic" in2="effect1_dropShadow_45_21380" mode="normal" result="shape"/></filter><filter id="filter8_d_45_21380" width="22.942" height="30.166" x="3.987" y="2.911" color-interpolation-filters="sRGB" filterUnits="userSpaceOnUse"><feFlood flood-opacity="0" result="BackgroundImageFix"/><feColorMatrix in="SourceAlpha" result="hardAlpha" type="matrix" values="0 0 0 0 0 0 0 0 0 0 0 0 0 0 0 0 0 0 127 0"/><feOffset dx=".056"/><feGaussianBlur stdDeviation=".056"/><feComposite in2="hardAlpha" operator="out"/><feColorMatrix type="matrix" values="0 0 0 0 0 0 0 0 0 0 0 0 0 0 0 0 0 0 0.1 0"/><feBlend in2="BackgroundImageFix" mode="normal" result="effect1_dropShadow_45_21380"/><feBlend in="SourceGraphic" in2="effect1_dropShadow_45_21380" mode="normal" result="shape"/></filter><filter id="filter9_d_45_21380" width="22.964" height="30.329" x="3.874" y="2.855" color-interpolation-filters="sRGB" filterUnits="userSpaceOnUse"><feFlood flood-opacity="0" result="BackgroundImageFix"/><feColorMatrix in="SourceAlpha" result="hardAlpha" type="matrix" values="0 0 0 0 0 0 0 0 0 0 0 0 0 0 0 0 0 0 127 0"/><feOffset dx=".056"/><feGaussianBlur stdDeviation=".056"/><feComposite in2="hardAlpha" operator="out"/><feColorMatrix type="matrix" values="0 0 0 0 0 0 0 0 0 0 0 0 0 0 0 0 0 0 0.1 0"/><feBlend in2="BackgroundImageFix" mode="normal" result="effect1_dropShadow_45_21380"/><feBlend in="SourceGraphic" in2="effect1_dropShadow_45_21380" mode="normal" result="shape"/></filter><filter id="filter10_d_45_21380" width="22.999" height="30.591" x="3.757" y="2.764" color-interpolation-filters="sRGB" filterUnits="userSpaceOnUse"><feFlood flood-opacity="0" result="BackgroundImageFix"/><feColorMatrix in="SourceAlpha" result="hardAlpha" type="matrix" values="0 0 0 0 0 0 0 0 0 0 0 0 0 0 0 0 0 0 127 0"/><feOffset dx=".056"/><feGaussianBlur stdDeviation=".056"/><feComposite in2="hardAlpha" operator="out"/><feColorMatrix type="matrix" values="0 0 0 0 0 0 0 0 0 0 0 0 0 0 0 0 0 0 0.1 0"/><feBlend in2="BackgroundImageFix" mode="normal" result="effect1_dropShadow_45_21380"/><feBlend in="SourceGraphic" in2="effect1_dropShadow_45_21380" mode="normal" result="shape"/></filter><filter id="filter11_d_45_21380" width="23.025" height="30.787" x="3.64" y="2.673" color-interpolation-filters="sRGB" filterUnits="userSpaceOnUse"><feFlood flood-opacity="0" result="BackgroundImageFix"/><feColorMatrix in="SourceAlpha" result="hardAlpha" type="matrix" values="0 0 0 0 0 0 0 0 0 0 0 0 0 0 0 0 0 0 127 0"/><feOffset dx=".056"/><feGaussianBlur stdDeviation=".056"/><feComposite in2="hardAlpha" operator="out"/><feColorMatrix type="matrix" values="0 0 0 0 0 0 0 0 0 0 0 0 0 0 0 0 0 0 0.1 0"/><feBlend in2="BackgroundImageFix" mode="normal" result="effect1_dropShadow_45_21380"/><feBlend in="SourceGraphic" in2="effect1_dropShadow_45_21380" mode="normal" result="shape"/></filter><filter id="filter12_d_45_21380" width="23.056" height="31.016" x="3.523" y="2.582" color-interpolation-filters="sRGB" filterUnits="userSpaceOnUse"><feFlood flood-opacity="0" result="BackgroundImageFix"/><feColorMatrix in="SourceAlpha" result="hardAlpha" type="matrix" values="0 0 0 0 0 0 0 0 0 0 0 0 0 0 0 0 0 0 127 0"/><feOffset dx=".056"/><feGaussianBlur stdDeviation=".056"/><feComposite in2="hardAlpha" operator="out"/><feColorMatrix type="matrix" values="0 0 0 0 0 0 0 0 0 0 0 0 0 0 0 0 0 0 0.1 0"/><feBlend in2="BackgroundImageFix" mode="normal" result="effect1_dropShadow_45_21380"/><feBlend in="SourceGraphic" in2="effect1_dropShadow_45_21380" mode="normal" result="shape"/></filter><filter id="filter13_d_45_21380" width="23.082" height="31.212" x="3.405" y="2.491" color-interpolation-filters="sRGB" filterUnits="userSpaceOnUse"><feFlood flood-opacity="0" result="BackgroundImageFix"/><feColorMatrix in="SourceAlpha" result="hardAlpha" type="matrix" values="0 0 0 0 0 0 0 0 0 0 0 0 0 0 0 0 0 0 127 0"/><feOffset dx=".056"/><feGaussianBlur stdDeviation=".056"/><feComposite in2="hardAlpha" operator="out"/><feColorMatrix type="matrix" values="0 0 0 0 0 0 0 0 0 0 0 0 0 0 0 0 0 0 0.1 0"/><feBlend in2="BackgroundImageFix" mode="normal" result="effect1_dropShadow_45_21380"/><feBlend in="SourceGraphic" in2="effect1_dropShadow_45_21380" mode="normal" result="shape"/></filter><linearGradient id="paint0_linear_45_21380" x1="25.89" x2="26.042" y1="17.758" y2="17.738" gradientUnits="userSpaceOnUse"><stop stop-color="#7044BF"/><stop offset="1" stop-color="#A97EF5"/></linearGradient><linearGradient id="paint1_linear_45_21380" x1="23.997" x2="24.503" y1="2.719" y2="2.661" gradientUnits="userSpaceOnUse"><stop stop-color="#AC7DFF" stop-opacity="0"/><stop offset="1" stop-color="#562D9D" stop-opacity=".65"/></linearGradient><linearGradient id="paint2_linear_45_21380" x1="14.048" x2="16.009" y1="1.709" y2="33.406" gradientUnits="userSpaceOnUse"><stop stop-color="#B388FF" stop-opacity=".5"/><stop offset="1" stop-color="#673AB7"/><stop offset="1" stop-color="#5C00FF"/></linearGradient><linearGradient id="paint3_linear_45_21380" x1="23.998" x2="24.364" y1="18.18" y2="18.132" gradientUnits="userSpaceOnUse"><stop stop-color="#A97EF5"/><stop offset="1" stop-color="#7044BF"/></linearGradient><linearGradient id="paint4_linear_45_21380" x1="22.083" x2="23.3" y1="1.98" y2="1.866" gradientUnits="userSpaceOnUse"><stop stop-color="#AC7DFF" stop-opacity="0"/><stop offset="1" stop-color="#562D9D" stop-opacity=".65"/></linearGradient></defs></svg>